HIERARCHY
ROOT hip
{
  OFFSET 5.51535 103.731 -2.80141
  CHANNELS 6 Xposition Yposition Zposition Zrotation Xrotation Yrotation
  JOINT abdomen
  {
    OFFSET 0 -1.186 -1.5018
    CHANNELS 6 Xposition Yposition Zposition Zrotation Xrotation Yrotation
    JOINT abdomen2
    {
      OFFSET 0 9.964 0.2134
      CHANNELS 6 Xposition Yposition Zposition Zrotation Xrotation Yrotation
      JOINT chest
      {
        OFFSET 0 13.134 -3.2573
        CHANNELS 6 Xposition Yposition Zposition Zrotation Xrotation Yrotation
        JOINT neck
        {
          OFFSET 0 20.686 -1.6905
          CHANNELS 6 Xposition Yposition Zposition Zrotation Xrotation Yrotation
          JOINT head
          {
            OFFSET 0 7.23801 -0.1237
            CHANNELS 6 Xposition Yposition Zposition Zrotation Xrotation Yrotation
            End Site
            {
              OFFSET 0 0 0
            }
          }
        }
        JOINT lCollar
        {
          OFFSET 1.7069 20.075 5.0056
          CHANNELS 6 Xposition Yposition Zposition Zrotation Xrotation Yrotation
          JOINT lShldr
          {
            OFFSET 13.6458 -0.0470195 -4.849
            CHANNELS 6 Xposition Yposition Zposition Zrotation Xrotation Yrotation
            JOINT lForeArm
            {
              OFFSET 28.3255 -0.97589 2.2888
              CHANNELS 6 Xposition Yposition Zposition Zrotation Xrotation Yrotation
              JOINT lHand
              {
                OFFSET 22.1583 -0.529998 10.8316
                CHANNELS 6 Xposition Yposition Zposition Zrotation Xrotation Yrotation
                JOINT lThumb1
                {
                  OFFSET 0.786 0.111997 2.5817
                  CHANNELS 6 Xposition Yposition Zposition Zrotation Xrotation Yrotation
                  JOINT lThumb2
                  {
                    OFFSET 0.360097 -0.877999 4.2331
                    CHANNELS 6 Xposition Yposition Zposition Zrotation Xrotation Yrotation
                    JOINT lThumb2_End
                    {
                      OFFSET 1.8127 -1.21601 2.2227
                      CHANNELS 6 Xposition Yposition Zposition Zrotation Xrotation Yrotation
                      End Site
                      {
                        OFFSET 0.0180981 -0.012195 0.0222007
                      }
                    }
                  }
                }
                JOINT lCarpal1
                {
                  OFFSET 0.9571 1.114 1.7695
                  CHANNELS 6 Xposition Yposition Zposition Zrotation Xrotation Yrotation
                  JOINT lIndex1
                  {
                    OFFSET 4.12461 0.486992 4.1451
                    CHANNELS 6 Xposition Yposition Zposition Zrotation Xrotation Yrotation
                    JOINT lIndex2
                    {
                      OFFSET 3.4052 -1.45401 2.7682
                      CHANNELS 6 Xposition Yposition Zposition Zrotation Xrotation Yrotation
                      JOINT lIndex2_End
                      {
                        OFFSET 1.45309 -1.79499 1.2713
                        CHANNELS 6 Xposition Yposition Zposition Zrotation Xrotation Yrotation
                        End Site
                        {
                          OFFSET 0.0144979 -0.0179083 0.0126995
                        }
                      }
                    }
                  }
                  JOINT lMid1
                  {
                    OFFSET 5.6954 0.209987 2.1184
                    CHANNELS 6 Xposition Yposition Zposition Zrotation Xrotation Yrotation
                    JOINT lMid2
                    {
                      OFFSET 3.9766 -1.53999 2.3863
                      CHANNELS 6 Xposition Yposition Zposition Zrotation Xrotation Yrotation
                      JOINT lMid2_End
                      {
                        OFFSET 1.4042 -1.926 1.125
                        CHANNELS 6 Xposition Yposition Zposition Zrotation Xrotation Yrotation
                        End Site
                        {
                          OFFSET 0.013999 -0.0193044 0.011301
                        }
                      }
                    }
                  }
                }
                JOINT lCarpal2
                {
                  OFFSET 2.0956 0.66 -0.3894
                  CHANNELS 6 Xposition Yposition Zposition Zrotation Xrotation Yrotation
                  JOINT lRing1
                  {
                    OFFSET 5.0395 -0.090013 2.4971
                    CHANNELS 6 Xposition Yposition Zposition Zrotation Xrotation Yrotation
                    JOINT lRing2
                    {
                      OFFSET 3.7921 -1.55199 1.4806
                      CHANNELS 6 Xposition Yposition Zposition Zrotation Xrotation Yrotation
                      JOINT lRing2_End
                      {
                        OFFSET 1.4655 -1.808 0.9609
                        CHANNELS 6 Xposition Yposition Zposition Zrotation Xrotation Yrotation
                        End Site
                        {
                          OFFSET 0.0147015 -0.0181014 0.00959957
                        }
                      }
                    }
                  }
                  JOINT lPinky1
                  {
                    OFFSET 4.9141 -1.269 0.3591
                    CHANNELS 6 Xposition Yposition Zposition Zrotation Xrotation Yrotation
                    JOINT lPinky2
                    {
                      OFFSET 3.1477 -1.685 0.8462
                      CHANNELS 6 Xposition Yposition Zposition Zrotation Xrotation Yrotation
                      JOINT lPinky2_End
                      {
                        OFFSET 0.805498 -1.58501 0.795499
                        CHANNELS 6 Xposition Yposition Zposition Zrotation Xrotation Yrotation
                        End Site
                        {
                          OFFSET 0.00809703 -0.0157944 0.00799848
                        }
                      }
                    }
                  }
                }
              }
            }
          }
        }
        JOINT rCollar
        {
          OFFSET -1.7069 20.075 5.0056
          CHANNELS 6 Xposition Yposition Zposition Zrotation Xrotation Yrotation
          JOINT rShldr
          {
            OFFSET -13.6458 -0.0470107 -4.849
            CHANNELS 6 Xposition Yposition Zposition Zrotation Xrotation Yrotation
            JOINT rForeArm
            {
              OFFSET -28.3255 -0.975895 2.2888
              CHANNELS 6 Xposition Yposition Zposition Zrotation Xrotation Yrotation
              JOINT rHand
              {
                OFFSET -22.1583 -0.530007 10.8316
                CHANNELS 6 Xposition Yposition Zposition Zrotation Xrotation Yrotation
                JOINT rThumb1
                {
                  OFFSET -0.785997 0.112005 2.5817
                  CHANNELS 6 Xposition Yposition Zposition Zrotation Xrotation Yrotation
                  JOINT rThumb2
                  {
                    OFFSET -0.360106 -0.877994 4.2331
                    CHANNELS 6 Xposition Yposition Zposition Zrotation Xrotation Yrotation
                    JOINT rThumb2_End
                    {
                      OFFSET -1.8127 -1.216 2.2227
                      CHANNELS 6 Xposition Yposition Zposition Zrotation Xrotation Yrotation
                      End Site
                      {
                        OFFSET -0.0180972 -0.0121973 0.0222005
                      }
                    }
                  }
                }
                JOINT rCarpal1
                {
                  OFFSET -0.9571 1.114 1.7695
                  CHANNELS 6 Xposition Yposition Zposition Zrotation Xrotation Yrotation
                  JOINT rIndex1
                  {
                    OFFSET -4.1246 0.487011 4.1451
                    CHANNELS 6 Xposition Yposition Zposition Zrotation Xrotation Yrotation
                    JOINT rIndex2
                    {
                      OFFSET -3.4052 -1.45401 2.7682
                      CHANNELS 6 Xposition Yposition Zposition Zrotation Xrotation Yrotation
                      JOINT rIndex2_End
                      {
                        OFFSET -1.4531 -1.795 1.2713
                        CHANNELS 6 Xposition Yposition Zposition Zrotation Xrotation Yrotation
                        End Site
                        {
                          OFFSET -0.0145077 -0.0180048 0.0127017
                        }
                      }
                    }
                  }
                  JOINT rMid1
                  {
                    OFFSET -5.6954 0.210002 2.1184
                    CHANNELS 6 Xposition Yposition Zposition Zrotation Xrotation Yrotation
                    JOINT rMid2
                    {
                      OFFSET -3.9766 -1.54 2.3863
                      CHANNELS 6 Xposition Yposition Zposition Zrotation Xrotation Yrotation
                      JOINT rMid2_End
                      {
                        OFFSET -1.4042 -1.926 1.125
                        CHANNELS 6 Xposition Yposition Zposition Zrotation Xrotation Yrotation
                        End Site
                        {
                          OFFSET -0.0139948 -0.0192916 0.0112994
                        }
                      }
                    }
                  }
                }
                JOINT rCarpal2
                {
                  OFFSET -2.0956 0.66 -0.3894
                  CHANNELS 6 Xposition Yposition Zposition Zrotation Xrotation Yrotation
                  JOINT rRing1
                  {
                    OFFSET -5.03951 -0.0899879 2.4971
                    CHANNELS 6 Xposition Yposition Zposition Zrotation Xrotation Yrotation
                    JOINT rRing2
                    {
                      OFFSET -3.7921 -1.55201 1.4806
                      CHANNELS 6 Xposition Yposition Zposition Zrotation Xrotation Yrotation
                      JOINT rRing2_End
                      {
                        OFFSET -1.4655 -1.808 0.960901
                        CHANNELS 6 Xposition Yposition Zposition Zrotation Xrotation Yrotation
                        End Site
                        {
                          OFFSET -0.0146934 -0.0180999 0.00959832
                        }
                      }
                    }
                  }
                  JOINT rPinky1
                  {
                    OFFSET -4.91411 -1.26899 0.359202
                    CHANNELS 6 Xposition Yposition Zposition Zrotation Xrotation Yrotation
                    JOINT rPinky2
                    {
                      OFFSET -3.14769 -1.68501 0.846199
                      CHANNELS 6 Xposition Yposition Zposition Zrotation Xrotation Yrotation
                      JOINT rPinky2_End
                      {
                        OFFSET -0.805498 -1.585 0.7955
                        CHANNELS 6 Xposition Yposition Zposition Zrotation Xrotation Yrotation
                        End Site
                        {
                          OFFSET -0.00810035 -0.0158035 0.00800029
                        }
                      }
                    }
                  }
                }
              }
            }
          }
        }
      }
    }
  }
  JOINT lThigh
  {
    OFFSET 8.367 -8.2066 0.5982
    CHANNELS 6 Xposition Yposition Zposition Zrotation Xrotation Yrotation
    JOINT lShin
    {
      OFFSET 2.1923 -43.463 -0.4932
      CHANNELS 6 Xposition Yposition Zposition Zrotation Xrotation Yrotation
      JOINT lFoot
      {
        OFFSET 0.733301 -45.8593 -2.6451
        CHANNELS 6 Xposition Yposition Zposition Zrotation Xrotation Yrotation
        End Site
        {
          OFFSET 2.6618 -4.2699 12.3931
        }
      }
    }
  }
  JOINT rThigh
  {
    OFFSET -8.367 -8.2066 0.5982
    CHANNELS 6 Xposition Yposition Zposition Zrotation Xrotation Yrotation
    JOINT rShin
    {
      OFFSET -2.1923 -43.463 -0.4931
      CHANNELS 6 Xposition Yposition Zposition Zrotation Xrotation Yrotation
      JOINT rFoot
      {
        OFFSET -0.733299 -45.8593 -2.6451
        CHANNELS 6 Xposition Yposition Zposition Zrotation Xrotation Yrotation
        End Site
        {
          OFFSET -2.6618 -4.2699 12.3931
        }
      }
    }
  }
}
MOTION
Frames:	4
Frame Time:	0.0333333
296.058 103.749 -197.258 -10.01 -5.8912 -17.068 -6.84457e-006 -1.18599 -1.5018 3.45154 8.80458 -0.00395726 -6.97807e-006 9.964 0.213403 7.03052 17.5924 -0.561977 6.31847e-006 13.134 -3.2573 7.03052 17.5924 -0.561972 3.48898e-006 20.686 -1.69049 -1.03797 -18.3764 6.14706 -1.56264e-005 7.23801 -0.123704 -4.94504 -2.21188 -0.853855 1.70689 20.075 5.0056 11.0622 -0.808667 -2.60583 13.6458 -0.047019 -4.84899 -82.4506 33.2972 8.56534 28.3255 -0.975894 2.28881 -34.547 -13.4392 -104.226 22.1583 -0.529986 10.8316 16.8666 3.2266 -26.674 0.786014 0.111985 2.5817 0.000297849 0.000336324 0.000120997 0.360102 -0.877998 4.2331 -0.000248376 -0.000268121 5.65316e-005 1.8127 -1.21601 2.2227 -8.10183e-005 6.56257e-005 -4.98103e-005 0.9571 1.114 1.7695 1.59028e-015 0 3.18055e-015 4.12461 0.487006 4.1451 -1.76119e-005 -3.02526e-005 0.000180398 3.40521 -1.45402 2.7682 0.000140908 0.000236792 4.15526e-006 1.45311 -1.795 1.2713 -8.51054e-005 3.6213e-005 3.46918e-005 5.69541 0.209975 2.1184 0.000123562 0.00020937 9.31575e-005 3.97661 -1.53999 2.3863 -9.87961e-005 -7.48854e-005 0.000132715 1.4042 -1.92599 1.125 -9.29432e-006 7.24477e-005 -8.3946e-005 2.0956 0.66 -0.3894 1.59028e-015 0 3.18055e-015 5.03951 -0.0900199 2.4971 1.07804e-005 9.15668e-005 0.000165006 3.79209 -1.55201 1.4806 -1.26228e-005 -1.00597e-005 0.000132138 1.46549 -1.808 0.9609 -1.77686e-005 1.1703e-005 0.000212494 4.9141 -1.26901 0.3591 0.000211125 6.66752e-005 0.000107622 3.14771 -1.68502 0.846204 -0.000130184 0.000109018 2.76288e-005 0.8055 -1.58501 0.795504 4.06698e-005 2.19976e-005 0.000100935 -1.70691 20.075 5.0056 5.7736 -0.0625417 3.95695 -13.6458 -0.047018 -4.84901 65.3336 22.4123 -9.57761 -28.3255 -0.975886 2.28881 15.8558 -30.5448 96.1955 -22.1583 -0.530002 10.8316 -15.7064 -13.8096 25.7894 -0.785995 0.112002 2.5817 -6.2244 5.63406 -10.5937 -0.360114 -0.877994 4.23311 1.47671 -1.18407 4.36327 -1.8127 -1.21601 2.2227 1.19726 -0.97395 3.555 -0.9571 1.114 1.7695 -3.18055e-015 -3.18055e-015 1.59028e-015 -4.1246 0.486998 4.1451 -5.00607 4.74582 -4.49266 -3.40519 -1.45401 2.7682 0.817549 0.272206 -0.116545 -1.45309 -1.79499 1.2713 -1.18019 -0.395805 0.16155 -5.69542 0.210007 2.1184 -3.33691 2.06934 0.29574 -3.9766 -1.54001 2.3863 -2.76996 -1.05264 0.355733 -1.4042 -1.92601 1.125 -3.53466 -1.3473 0.444605 -2.0956 0.66 -0.3894 -3.18055e-015 -3.18055e-015 1.59028e-015 -5.03951 -0.0899814 2.49711 -4.16953 -2.40894 0.946348 -3.79209 -1.55201 1.4806 -2.99197 -1.25837 0.507574 -1.46549 -1.80801 0.960902 -3.75995 -1.58626 0.627665 -4.9141 -1.26899 0.359199 -3.33675 -3.31671 1.79417 -3.14768 -1.68501 0.846198 -5.13665 -2.33602 0.758858 -0.805494 -1.58501 0.795495 -3.50647 -1.58395 0.542308 8.36702 -8.20659 0.598198 15.2065 2.38366 -14.2753 2.1923 -43.4631 -0.493209 0.0351387 0.35045 0.137091 0.733297 -45.8593 -2.6451 3.87615 4.10039 -2.21045 -8.36701 -8.2066 0.5982 13.1248 8.19847 12.8038 -2.19229 -43.463 -0.493108 -2.08707 -2.5669 0.371143 -0.733308 -45.8593 -2.6451 -0.989732 2.6175 -9.89572 
296.066 103.751 -197.255 -9.97313 -5.87722 -17.1697 4.2183e-006 -1.186 -1.50181 3.47095 8.8433 -0.0419661 1.08239e-005 9.964 0.213399 7.0773 17.6672 -0.645121 5.74868e-006 13.134 -3.25731 7.07729 17.6672 -0.645111 1.41006e-006 20.686 -1.6905 -1.40521 -18.3058 6.17252 -1.26423e-005 7.23801 -0.1237 -5.0053 -2.47178 -0.678518 1.70689 20.075 5.0056 11.0186 -0.807255 -2.6282 13.6458 -0.0470104 -4.84901 -82.3976 33.1473 8.4032 28.3255 -0.975902 2.28881 -34.4276 -13.1775 -104.348 22.1583 -0.53 10.8316 16.9992 3.37025 -27.1376 0.786013 0.111993 2.5817 0.000286725 0.000312003 0.000104694 0.360098 -0.877997 4.2331 -0.0002453 -0.000279841 5.69774e-005 1.81269 -1.21602 2.2227 -8.12124e-005 4.7919e-005 -4.75269e-005 0.9571 1.114 1.7695 1.59028e-015 0 6.36111e-015 4.1246 0.487004 4.1451 -2.44875e-005 -4.66683e-005 0.000179234 3.40519 -1.454 2.7682 0.000104534 0.00018215 2.74274e-005 1.45309 -1.79498 1.2713 -9.81819e-005 1.24303e-005 3.03434e-005 5.69541 0.209984 2.1184 9.99649e-005 0.000148891 9.47276e-005 3.97659 -1.53998 2.3863 -0.000116352 -0.000105397 0.000153007 1.4042 -1.92599 1.125 -1.2285e-005 5.65238e-005 -6.63229e-005 2.0956 0.66 -0.3894 1.59028e-015 0 6.36111e-015 5.0395 -0.0900178 2.4971 -2.51446e-005 4.99815e-005 0.000159022 3.79209 -1.55199 1.4806 -2.91788e-005 -1.49918e-005 0.000139298 1.4655 -1.80799 0.9609 -1.57346e-005 8.99974e-006 0.000212005 4.9141 -1.269 0.359097 0.000194777 4.91111e-005 0.000103853 3.1477 -1.68499 0.846198 -0.00013947 9.53023e-005 2.85888e-005 0.805495 -1.58501 0.795496 5.27356e-005 1.01141e-005 0.000113619 -1.7069 20.075 5.0056 5.76974 -0.0621134 3.9267 -13.6458 -0.047019 -4.84901 65.2793 22.5354 -9.67859 -28.3255 -0.975883 2.2888 15.4961 -30.626 96.8719 -22.1583 -0.53002 10.8316 -16.1637 -13.869 26.2139 -0.785987 0.111997 2.5817 -6.22451 5.63425 -10.5936 -0.360112 -0.877981 4.2331 1.4767 -1.18405 4.36328 -1.81268 -1.21601 2.2227 1.19724 -0.973906 3.55502 -0.9571 1.114 1.7695 -0 0 3.18055e-015 -4.1246 0.487004 4.1451 -5.0061 4.74584 -4.49265 -3.40519 -1.45401 2.7682 0.817544 0.27222 -0.116535 -1.45309 -1.795 1.2713 -1.1802 -0.395793 0.161565 -5.6954 0.210008 2.1184 -3.33693 2.06938 0.295751 -3.97659 -1.54 2.3863 -2.76997 -1.05262 0.355753 -1.40419 -1.926 1.125 -3.53468 -1.34729 0.44462 -2.0956 0.66 -0.3894 -0 0 3.18055e-015 -5.03951 -0.0899801 2.4971 -4.16956 -2.40892 0.946336 -3.79209 -1.55201 1.48059 -2.9919 -1.25873 0.507167 -1.46549 -1.808 0.960896 -3.76003 -1.58591 0.628131 -4.9141 -1.26899 0.359203 -3.33679 -3.31667 1.79417 -3.14768 -1.68501 0.846199 -5.13668 -2.3359 0.758971 -0.805493 -1.585 0.795499 -3.50647 -1.58399 0.542256 8.367 -8.2066 0.598195 15.1168 2.33029 -14.1604 2.19231 -43.463 -0.493201 0.0362572 0.489316 0.161701 0.733296 -45.8593 -2.6451 4.33313 4.0222 -2.32853 -8.36701 -8.20659 0.598206 13.0766 8.16749 12.5825 -2.19231 -43.4631 -0.493108 -2.09984 -2.56683 0.377038 -0.733315 -45.8593 -2.6451 -0.938655 2.64228 -9.60129 
296.102 103.782 -197.301 -9.85097 -5.9598 -17.1309 -9.84205e-006 -1.186 -1.5018 3.48639 8.91315 -0.104151 -1.21871e-005 9.964 0.213402 7.12104 17.8028 -0.778936 -7.68667e-006 13.134 -3.2573 7.12105 17.8028 -0.778942 -4.33937e-007 20.686 -1.6905 -1.83685 -18.5239 5.57092 -1.46757e-005 7.23801 -0.123706 -4.7663 -2.66579 -0.986975 1.70689 20.075 5.00561 10.7929 -0.792235 -2.6649 13.6458 -0.0470157 -4.84899 -81.9627 33.1754 8.16702 28.3255 -0.975892 2.2888 -34.2846 -12.9666 -104.781 22.1583 -0.529988 10.8316 17.6508 3.73609 -27.2909 0.785998 0.111988 2.5817 0.000274384 0.000307695 0.000120838 0.360093 -0.877985 4.2331 -0.000301154 -0.000295604 6.13622e-005 1.8127 -1.216 2.2227 -9.35544e-005 2.04157e-005 -3.16214e-005 0.9571 1.114 1.7695 1.59028e-015 -7.95139e-016 -0 4.12461 0.486993 4.1451 -4.3722e-005 -8.46869e-005 0.000165608 3.4052 -1.45402 2.7682 8.896e-005 0.000142336 3.74413e-005 1.4531 -1.795 1.2713 -0.000117265 -4.37976e-005 6.40199e-005 5.6954 0.209984 2.1184 5.22818e-005 4.87644e-005 9.05776e-005 3.9766 -1.53999 2.3863 -0.000134326 -0.0001789 0.000180874 1.40419 -1.926 1.125 -1.59062e-005 4.4994e-005 -6.59045e-005 2.0956 0.66 -0.3894 1.59028e-015 -7.95139e-016 -0 5.0395 -0.090002 2.4971 -1.80084e-005 2.5216e-005 0.000145296 3.7921 -1.55198 1.4806 -3.10842e-005 -4.13778e-005 0.000152779 1.4655 -1.80799 0.960898 -4.00914e-006 -6.4314e-006 0.000235885 4.91411 -1.26899 0.359104 0.000198237 2.30915e-005 8.80223e-005 3.1477 -1.685 0.846198 -0.000148606 7.00569e-005 4.20687e-005 0.805502 -1.58501 0.795498 5.10155e-005 8.67217e-006 0.000127305 -1.7069 20.075 5.00559 5.92464 -0.0639032 4.03262 -13.6458 -0.0470118 -4.849 65.0047 22.6894 -9.83479 -28.3255 -0.975877 2.28879 15.1167 -30.8477 97.6596 -22.1583 -0.530017 10.8316 -17.0979 -13.7567 26.2268 -0.785992 0.111995 2.5817 -6.22452 5.63428 -10.5936 -0.360096 -0.877999 4.2331 1.4767 -1.18407 4.36329 -1.81269 -1.21601 2.2227 1.1972 -0.97386 3.55505 -0.9571 1.114 1.7695 -9.54166e-015 -1.59028e-015 1.59028e-015 -4.12461 0.48701 4.14511 -5.00609 4.74586 -4.49265 -3.4052 -1.45401 2.7682 0.817558 0.272227 -0.116529 -1.4531 -1.79501 1.2713 -1.18023 -0.395727 0.161586 -5.69542 0.210005 2.1184 -3.33693 2.06944 0.295752 -3.97659 -1.54 2.3863 -2.76997 -1.05262 0.35575 -1.4042 -1.926 1.125 -3.5347 -1.34722 0.444685 -2.0956 0.66 -0.3894 -9.54166e-015 -1.59028e-015 1.59028e-015 -5.03952 -0.0899833 2.4971 -4.16955 -2.40889 0.94634 -3.7921 -1.55199 1.4806 -2.99204 -1.25811 0.50784 -1.46551 -1.808 0.960901 -3.75994 -1.58638 0.627513 -4.9141 -1.269 0.359203 -3.3368 -3.31659 1.79418 -3.14771 -1.685 0.846198 -5.13669 -2.33588 0.759026 -0.805501 -1.58499 0.795501 -3.50649 -1.58397 0.542305 8.367 -8.20661 0.598194 14.8548 2.20887 -14.2349 2.19231 -43.4631 -0.493214 0.0339392 0.791464 0.194835 0.733275 -45.8593 -2.64509 5.12195 3.94934 -2.48371 -8.36699 -8.2066 0.598192 12.8987 8.183 12.2944 -2.19232 -43.4631 -0.493101 -2.08808 -2.61152 0.385306 -0.733301 -45.8593 -2.64509 -0.71828 2.58265 -9.48812 
296.071 103.794 -197.341 -9.78059 -6.00316 -17.0403 6.78939e-006 -1.186 -1.5018 3.50799 8.97781 -0.152409 3.91912e-006 9.964 0.213404 7.17509 17.9287 -0.88534 -3.77152e-007 13.134 -3.25731 7.1751 17.9287 -0.885347 -5.02242e-006 20.686 -1.6905 -2.35212 -18.4177 3.84217 -8.21667e-006 7.238 -0.123693 -4.44624 -3.57079 -1.95795 1.7069 20.075 5.00561 10.6618 -0.78033 -2.65427 13.6458 -0.0470025 -4.849 -81.6063 33.2024 7.98021 28.3255 -0.975905 2.2888 -34.1433 -12.751 -105.179 22.1583 -0.529985 10.8316 17.6627 3.72351 -27.7771 0.786 0.112005 2.5817 0.000366121 0.000422714 0.000108576 0.360098 -0.878001 4.2331 -0.000340072 -0.000333363 9.95247e-005 1.81269 -1.216 2.22269 -0.00011012 -1.72844e-005 -2.6197e-005 0.9571 1.114 1.7695 -1.59028e-015 -1.59028e-015 -1.59028e-015 4.12461 0.487 4.1451 1.11474e-005 1.65385e-005 0.000183265 3.40521 -1.45401 2.7682 7.334e-005 7.96875e-005 4.72306e-005 1.4531 -1.79498 1.27129 -0.00014599 -0.000139409 0.000104734 5.6954 0.209996 2.1184 0.000142375 0.000246939 8.24605e-005 3.9766 -1.54 2.3863 -9.06331e-005 -8.95015e-005 0.000140248 1.4042 -1.92601 1.125 -1.95844e-005 1.72168e-006 -3.47074e-005 2.0956 0.66 -0.3894 -1.59028e-015 -1.59028e-015 -1.59028e-015 5.0395 -0.0900044 2.4971 -8.18098e-005 -7.29257e-005 0.000156542 3.7921 -1.55199 1.4806 -2.94924e-005 -4.26237e-005 0.000144938 1.4655 -1.80801 0.960902 -1.20322e-005 -4.85598e-005 0.000284303 4.91411 -1.269 0.359104 0.000150537 -5.10447e-005 8.47468e-005 3.1477 -1.68501 0.846199 -0.000161412 5.8094e-005 5.64996e-005 0.805505 -1.58501 0.795498 6.96878e-005 -1.42151e-005 0.000150913 -1.70689 20.075 5.0056 6.00762 -0.0646032 4.07104 -13.6458 -0.0470204 -4.84899 64.8251 22.6408 -9.85354 -28.3255 -0.975888 2.2888 14.832 -30.9151 98.1832 -22.1583 -0.530018 10.8316 -17.3213 -14.1202 26.7342 -0.786008 0.112009 2.5817 -6.22487 5.63492 -10.5934 -0.360099 -0.878004 4.2331 1.47667 -1.18403 4.36329 -1.8127 -1.216 2.2227 1.19729 -0.973958 3.555 -0.9571 1.114 1.7695 -6.36111e-015 -1.59028e-015 -1.59028e-015 -4.12461 0.487004 4.1451 -5.00612 4.74593 -4.49264 -3.4052 -1.45401 2.7682 0.817549 0.272245 -0.116536 -1.45309 -1.795 1.27129 -1.18016 -0.395852 0.16157 -5.69541 0.210011 2.1184 -3.33699 2.06954 0.295751 -3.97661 -1.53998 2.3863 -2.76996 -1.05261 0.355779 -1.40419 -1.926 1.125 -3.53471 -1.34718 0.444732 -2.0956 0.66 -0.3894 -6.36111e-015 -1.59028e-015 -1.59028e-015 -5.0395 -0.0899961 2.4971 -4.16958 -2.40884 0.946353 -3.79209 -1.55202 1.4806 -2.99217 -1.25748 0.508626 -1.4655 -1.80801 0.960902 -3.7598 -1.58707 0.62657 -4.91411 -1.26899 0.359207 -3.33674 -3.31679 1.79415 -3.14769 -1.68501 0.846195 -5.13672 -2.33575 0.75915 -0.805489 -1.585 0.795501 -3.50642 -1.58417 0.541984 8.36701 -8.20661 0.598194 14.6983 2.11277 -14.7086 2.19229 -43.463 -0.493192 0.032233 0.994448 0.220184 0.733314 -45.8594 -2.64512 5.85665 3.82135 -2.2416 -8.367 -8.20661 0.598191 12.8195 8.13289 11.8186 -2.19232 -43.463 -0.493101 -2.06923 -2.55097 0.383342 -0.733292 -45.8594 -2.6451 -0.588292 2.47917 -8.98326 
